<mxfile host="app.diagrams.net" modified="2024-07-20T02:06:46.784Z" agent="Mozilla/5.0 (Macintosh; Intel Mac OS X 10.15; rv:128.0) Gecko/20100101 Firefox/128.0" etag="QkSDTKnOQ_jJ-xdpb5eu" version="24.6.3" type="github">
  <diagram id="C5RBs43oDa-KdzZeNtuy" name="Page-1">
    <mxGraphModel dx="1266" dy="640" grid="1" gridSize="10" guides="1" tooltips="1" connect="1" arrows="1" fold="1" page="1" pageScale="1" pageWidth="827" pageHeight="1169" math="0" shadow="0">
      <root>
        <mxCell id="WIyWlLk6GJQsqaUBKTNV-0" />
        <mxCell id="WIyWlLk6GJQsqaUBKTNV-1" parent="WIyWlLk6GJQsqaUBKTNV-0" />
        <mxCell id="2yHJEmbih0_BaqfHrte1-0" value="Linked List" style="swimlane;whiteSpace=wrap;html=1;" vertex="1" parent="WIyWlLk6GJQsqaUBKTNV-1">
          <mxGeometry x="300" y="80" width="200" height="200" as="geometry" />
        </mxCell>
        <mxCell id="2yHJEmbih0_BaqfHrte1-1" value="- head: Node*" style="rounded=0;whiteSpace=wrap;html=1;" vertex="1" parent="2yHJEmbih0_BaqfHrte1-0">
          <mxGeometry y="20" width="200" height="30" as="geometry" />
        </mxCell>
        <mxCell id="2yHJEmbih0_BaqfHrte1-2" value="+ LinkedList()" style="rounded=0;whiteSpace=wrap;html=1;" vertex="1" parent="2yHJEmbih0_BaqfHrte1-0">
          <mxGeometry y="50" width="200" height="20" as="geometry" />
        </mxCell>
        <mxCell id="2yHJEmbih0_BaqfHrte1-5" value="+ ~LiinkedList()" style="rounded=0;whiteSpace=wrap;html=1;" vertex="1" parent="2yHJEmbih0_BaqfHrte1-0">
          <mxGeometry y="70" width="200" height="20" as="geometry" />
        </mxCell>
        <mxCell id="2yHJEmbih0_BaqfHrte1-6" value="+ add(x: int): bool" style="rounded=0;whiteSpace=wrap;html=1;" vertex="1" parent="2yHJEmbih0_BaqfHrte1-0">
          <mxGeometry y="90" width="200" height="20" as="geometry" />
        </mxCell>
        <mxCell id="2yHJEmbih0_BaqfHrte1-7" value="+ isMember(x:int): bool" style="rounded=0;whiteSpace=wrap;html=1;" vertex="1" parent="2yHJEmbih0_BaqfHrte1-0">
          <mxGeometry y="110" width="200" height="20" as="geometry" />
        </mxCell>
        <mxCell id="2yHJEmbih0_BaqfHrte1-8" value="+ print(): void" style="rounded=0;whiteSpace=wrap;html=1;" vertex="1" parent="2yHJEmbih0_BaqfHrte1-0">
          <mxGeometry y="130" width="200" height="20" as="geometry" />
        </mxCell>
        <mxCell id="2yHJEmbih0_BaqfHrte1-9" value="+ remove(x: int): void" style="rounded=0;whiteSpace=wrap;html=1;" vertex="1" parent="2yHJEmbih0_BaqfHrte1-0">
          <mxGeometry y="150" width="200" height="20" as="geometry" />
        </mxCell>
        <mxCell id="2yHJEmbih0_BaqfHrte1-10" value="+ reverse(): void" style="rounded=0;whiteSpace=wrap;html=1;" vertex="1" parent="2yHJEmbih0_BaqfHrte1-0">
          <mxGeometry y="170" width="200" height="30" as="geometry" />
        </mxCell>
        <mxCell id="2yHJEmbih0_BaqfHrte1-11" value="" style="endArrow=classic;html=1;rounded=0;" edge="1" parent="2yHJEmbih0_BaqfHrte1-0">
          <mxGeometry width="50" height="50" relative="1" as="geometry">
            <mxPoint x="114" y="210" as="sourcePoint" />
            <mxPoint x="114" y="300" as="targetPoint" />
          </mxGeometry>
        </mxCell>
        <mxCell id="2yHJEmbih0_BaqfHrte1-12" value="Node" style="swimlane;fontStyle=0;childLayout=stackLayout;horizontal=1;startSize=26;fillColor=none;horizontalStack=0;resizeParent=1;resizeParentMax=0;resizeLast=0;collapsible=1;marginBottom=0;whiteSpace=wrap;html=1;" vertex="1" parent="WIyWlLk6GJQsqaUBKTNV-1">
          <mxGeometry x="300" y="400" width="210" height="104" as="geometry" />
        </mxCell>
        <mxCell id="2yHJEmbih0_BaqfHrte1-13" value="+ value: int" style="text;strokeColor=none;fillColor=none;align=left;verticalAlign=top;spacingLeft=4;spacingRight=4;overflow=hidden;rotatable=0;points=[[0,0.5],[1,0.5]];portConstraint=eastwest;whiteSpace=wrap;html=1;" vertex="1" parent="2yHJEmbih0_BaqfHrte1-12">
          <mxGeometry y="26" width="210" height="26" as="geometry" />
        </mxCell>
        <mxCell id="2yHJEmbih0_BaqfHrte1-14" value="+ next: Node*" style="text;strokeColor=none;fillColor=none;align=left;verticalAlign=top;spacingLeft=4;spacingRight=4;overflow=hidden;rotatable=0;points=[[0,0.5],[1,0.5]];portConstraint=eastwest;whiteSpace=wrap;html=1;" vertex="1" parent="2yHJEmbih0_BaqfHrte1-12">
          <mxGeometry y="52" width="210" height="26" as="geometry" />
        </mxCell>
        <mxCell id="2yHJEmbih0_BaqfHrte1-15" value="+ Node(x: int)" style="text;strokeColor=none;fillColor=none;align=left;verticalAlign=top;spacingLeft=4;spacingRight=4;overflow=hidden;rotatable=0;points=[[0,0.5],[1,0.5]];portConstraint=eastwest;whiteSpace=wrap;html=1;" vertex="1" parent="2yHJEmbih0_BaqfHrte1-12">
          <mxGeometry y="78" width="210" height="26" as="geometry" />
        </mxCell>
      </root>
    </mxGraphModel>
  </diagram>
</mxfile>
